<mxfile host="app.diagrams.net" modified="2023-04-18T02:15:28.452Z" agent="Mozilla/5.0 (Windows NT 10.0; Win64; x64) AppleWebKit/537.36 (KHTML, like Gecko) Chrome/112.0.0.0 Safari/537.36 Edg/112.0.1722.48" etag="87OV22NQiVgvlHR262Lq" version="21.1.8" type="github">
  <diagram name="第 1 页" id="4xzZJfwpJMOtNE4nLRw7">
    <mxGraphModel dx="1617" dy="756" grid="1" gridSize="10" guides="1" tooltips="1" connect="1" arrows="1" fold="1" page="1" pageScale="1" pageWidth="827" pageHeight="1169" math="0" shadow="0">
      <root>
        <mxCell id="0" />
        <mxCell id="1" parent="0" />
        <mxCell id="PQRR5Eb6_Yu4awQ5iJfK-1" style="edgeStyle=orthogonalEdgeStyle;rounded=0;orthogonalLoop=1;jettySize=auto;html=1;entryX=0.5;entryY=0;entryDx=0;entryDy=0;fontSize=14;" edge="1" parent="1" source="PQRR5Eb6_Yu4awQ5iJfK-2" target="PQRR5Eb6_Yu4awQ5iJfK-4">
          <mxGeometry relative="1" as="geometry" />
        </mxCell>
        <mxCell id="PQRR5Eb6_Yu4awQ5iJfK-2" value="&lt;font style=&quot;font-size: 14px;&quot;&gt;将所述的目标图像进行统一&lt;font style=&quot;&quot;&gt;的&lt;/font&gt;图像缩放预处理达到统一大小。&lt;/font&gt;" style="rounded=0;whiteSpace=wrap;html=1;" vertex="1" parent="1">
          <mxGeometry x="250" y="70" width="370" height="60" as="geometry" />
        </mxCell>
        <mxCell id="PQRR5Eb6_Yu4awQ5iJfK-3" style="edgeStyle=orthogonalEdgeStyle;rounded=0;orthogonalLoop=1;jettySize=auto;html=1;exitX=0.75;exitY=1;exitDx=0;exitDy=0;entryX=0.75;entryY=0.833;entryDx=0;entryDy=0;entryPerimeter=0;fontSize=14;" edge="1" parent="1" source="PQRR5Eb6_Yu4awQ5iJfK-4" target="PQRR5Eb6_Yu4awQ5iJfK-4">
          <mxGeometry relative="1" as="geometry" />
        </mxCell>
        <mxCell id="PQRR5Eb6_Yu4awQ5iJfK-17" style="edgeStyle=orthogonalEdgeStyle;rounded=0;orthogonalLoop=1;jettySize=auto;html=1;entryX=0.5;entryY=0;entryDx=0;entryDy=0;" edge="1" parent="1" source="PQRR5Eb6_Yu4awQ5iJfK-4" target="PQRR5Eb6_Yu4awQ5iJfK-9">
          <mxGeometry relative="1" as="geometry" />
        </mxCell>
        <mxCell id="PQRR5Eb6_Yu4awQ5iJfK-4" value="&lt;font style=&quot;font-size: 14px;&quot;&gt;将所述的已预处理的目标图像导入图像识别&lt;font style=&quot;&quot;&gt;模型&lt;/font&gt;中，得到特征层。&lt;/font&gt;" style="rounded=0;whiteSpace=wrap;html=1;" vertex="1" parent="1">
          <mxGeometry x="250" y="150" width="370" height="60" as="geometry" />
        </mxCell>
        <mxCell id="PQRR5Eb6_Yu4awQ5iJfK-5" value="" style="endArrow=classic;html=1;rounded=0;fontSize=14;" edge="1" parent="1">
          <mxGeometry width="50" height="50" relative="1" as="geometry">
            <mxPoint x="620" y="180" as="sourcePoint" />
            <mxPoint x="680" y="170" as="targetPoint" />
          </mxGeometry>
        </mxCell>
        <mxCell id="PQRR5Eb6_Yu4awQ5iJfK-6" value="" style="endArrow=classic;html=1;rounded=0;fontSize=14;" edge="1" parent="1">
          <mxGeometry width="50" height="50" relative="1" as="geometry">
            <mxPoint x="620" y="100" as="sourcePoint" />
            <mxPoint x="680" y="90" as="targetPoint" />
          </mxGeometry>
        </mxCell>
        <mxCell id="PQRR5Eb6_Yu4awQ5iJfK-7" value="S21" style="text;html=1;align=center;verticalAlign=middle;resizable=0;points=[];autosize=1;strokeColor=none;fillColor=none;fontSize=14;" vertex="1" parent="1">
          <mxGeometry x="668" y="75" width="50" height="30" as="geometry" />
        </mxCell>
        <mxCell id="PQRR5Eb6_Yu4awQ5iJfK-8" value="S22" style="text;html=1;align=center;verticalAlign=middle;resizable=0;points=[];autosize=1;strokeColor=none;fillColor=none;fontSize=14;" vertex="1" parent="1">
          <mxGeometry x="667" y="156" width="50" height="30" as="geometry" />
        </mxCell>
        <mxCell id="PQRR5Eb6_Yu4awQ5iJfK-18" style="edgeStyle=orthogonalEdgeStyle;rounded=0;orthogonalLoop=1;jettySize=auto;html=1;" edge="1" parent="1" source="PQRR5Eb6_Yu4awQ5iJfK-9" target="PQRR5Eb6_Yu4awQ5iJfK-10">
          <mxGeometry relative="1" as="geometry" />
        </mxCell>
        <mxCell id="PQRR5Eb6_Yu4awQ5iJfK-9" value="&lt;font style=&quot;font-size: 14px;&quot;&gt;利用所述的特征层利用卷积进行调整，将最终特征层通道数调整成num_classes获得预测结果。&lt;/font&gt;" style="rounded=0;whiteSpace=wrap;html=1;" vertex="1" parent="1">
          <mxGeometry x="250" y="230" width="370" height="60" as="geometry" />
        </mxCell>
        <mxCell id="PQRR5Eb6_Yu4awQ5iJfK-10" value="&lt;font style=&quot;font-size: 14px;&quot;&gt;将所述的识别预测结果与所述目标图片进行整合，以得到目标图片中石斑鱼的鱼尾、鱼身、鱼鳍以及参照物的语义分割图。&lt;/font&gt;" style="rounded=0;whiteSpace=wrap;html=1;" vertex="1" parent="1">
          <mxGeometry x="250" y="310" width="370" height="60" as="geometry" />
        </mxCell>
        <mxCell id="PQRR5Eb6_Yu4awQ5iJfK-13" value="" style="endArrow=classic;html=1;rounded=0;fontSize=14;" edge="1" parent="1">
          <mxGeometry width="50" height="50" relative="1" as="geometry">
            <mxPoint x="620" y="260" as="sourcePoint" />
            <mxPoint x="680" y="250" as="targetPoint" />
          </mxGeometry>
        </mxCell>
        <mxCell id="PQRR5Eb6_Yu4awQ5iJfK-14" value="" style="endArrow=classic;html=1;rounded=0;fontSize=14;" edge="1" parent="1">
          <mxGeometry width="50" height="50" relative="1" as="geometry">
            <mxPoint x="620" y="340" as="sourcePoint" />
            <mxPoint x="680" y="330" as="targetPoint" />
          </mxGeometry>
        </mxCell>
        <mxCell id="PQRR5Eb6_Yu4awQ5iJfK-15" value="S24" style="text;html=1;align=center;verticalAlign=middle;resizable=0;points=[];autosize=1;strokeColor=none;fillColor=none;fontSize=14;" vertex="1" parent="1">
          <mxGeometry x="668" y="315" width="50" height="30" as="geometry" />
        </mxCell>
        <mxCell id="PQRR5Eb6_Yu4awQ5iJfK-16" value="S23" style="text;html=1;align=center;verticalAlign=middle;resizable=0;points=[];autosize=1;strokeColor=none;fillColor=none;fontSize=14;" vertex="1" parent="1">
          <mxGeometry x="668" y="235" width="50" height="30" as="geometry" />
        </mxCell>
      </root>
    </mxGraphModel>
  </diagram>
</mxfile>
